<svg width="19" height="24" viewBox="0 0 19 24" fill="none" xmlns="http://www.w3.org/2000/svg">
<path d="M9.3 0C4.185 0 0 4.185 0 9.3C0 15.5775 8.1375 22.6687 8.48625 23.0175C8.71875 23.1337 9.0675 23.25 9.3 23.25C9.5325 23.25 9.88125 23.1337 10.1138 23.0175C10.4625 22.6687 18.6 15.5775 18.6 9.3C18.6 4.185 14.415 0 9.3 0ZM9.3 20.5763C6.85875 18.2513 2.325 13.2525 2.325 9.3C2.325 5.46375 5.46375 2.325 9.3 2.325C13.1363 2.325 16.275 5.46375 16.275 9.3C16.275 13.1363 11.7413 18.2513 9.3 20.5763ZM9.3 4.65C6.7425 4.65 4.65 6.7425 4.65 9.3C4.65 11.8575 6.7425 13.95 9.3 13.95C11.8575 13.95 13.95 11.8575 13.95 9.3C13.95 6.7425 11.8575 4.65 9.3 4.65ZM9.3 11.625C8.02125 11.625 6.975 10.5788 6.975 9.3C6.975 8.02125 8.02125 6.975 9.3 6.975C10.5788 6.975 11.625 8.02125 11.625 9.3C11.625 10.5788 10.5788 11.625 9.3 11.625Z" fill="#014B8A"/>
</svg>
