<svg width="17" height="18" viewBox="0 0 17 18" fill="none" xmlns="http://www.w3.org/2000/svg">
<path fill-rule="evenodd" clip-rule="evenodd" d="M11.7412 2.30398V4.33461L13.0429 3.04594V0.650842L12.392 0H0.676876L0.0260337 0.650842V1.28346L0 1.30168V14.696L0.468606 15.2948L6.97703 17.5337L7.81011 16.9219V15.6202H12.392L13.0429 14.9694V12.6133L11.7412 11.3116V14.3185H7.81011V3.52756L7.38055 2.92879L2.65023 1.30168H11.7412V2.30398ZM6.50842 15.9847L1.30168 14.2404V2.2389L6.50842 3.98315V15.9847ZM14.9954 8.43491H8.52603V7.13323H14.9433L12.8606 5.05054L13.7848 4.13936L17 7.3415V8.2657L13.7588 11.4939L12.8476 10.5827L14.9954 8.43491Z" fill="#B764AD"/>
</svg>
