<svg width="10" height="10" viewBox="0 0 10 10" fill="none" xmlns="http://www.w3.org/2000/svg">
<path d="M4.35417 0.916667C3.92872 0.916667 3.52069 1.08568 3.21985 1.38652C2.91901 1.68736 2.75 2.09538 2.75 2.52083C2.75 2.94628 2.91901 3.35431 3.21985 3.65515C3.52069 3.95599 3.92872 4.125 4.35417 4.125C4.77962 4.125 5.18764 3.95599 5.48848 3.65515C5.78932 3.35431 5.95833 2.94628 5.95833 2.52083C5.95833 2.09538 5.78932 1.68736 5.48848 1.38652C5.18764 1.08568 4.77962 0.916667 4.35417 0.916667ZM1.83333 2.52083C1.83333 1.85227 2.09892 1.21108 2.57167 0.738335C3.04442 0.265587 3.6856 0 4.35417 0C5.02273 0 5.66392 0.265587 6.13667 0.738335C6.60941 1.21108 6.875 1.85227 6.875 2.52083C6.875 3.1894 6.60941 3.83058 6.13667 4.30333C5.66392 4.77608 5.02273 5.04167 4.35417 5.04167C3.6856 5.04167 3.04442 4.77608 2.57167 4.30333C2.09892 3.83058 1.83333 3.1894 1.83333 2.52083ZM7.79167 5.04167V6.875H9.625V7.79167H7.79167V9.625H6.875V7.79167H5.04167V6.875H6.875V5.04167H7.79167ZM2.75 6.41667C2.26377 6.41667 1.79745 6.60982 1.45364 6.95364C1.10982 7.29745 0.916667 7.76377 0.916667 8.25H4.60625V9.16667H0V8.25C0 7.52065 0.289731 6.82118 0.805456 6.30546C1.32118 5.78973 2.02065 5.5 2.75 5.5H4.58333V6.41667H2.75Z" fill="#4C4848"/>
</svg>
