<svg width="19" height="19" viewBox="0 0 19 19" fill="none" xmlns="http://www.w3.org/2000/svg">
<path d="M8.39535 1.76744C7.57503 1.76744 6.78831 2.09331 6.20825 2.67337C5.6282 3.25342 5.30233 4.04014 5.30233 4.86047C5.30233 5.68079 5.6282 6.46751 6.20825 7.04756C6.78831 7.62762 7.57503 7.95349 8.39535 7.95349C9.21567 7.95349 10.0024 7.62762 10.5824 7.04756C11.1625 6.46751 11.4884 5.68079 11.4884 4.86047C11.4884 4.04014 11.1625 3.25342 10.5824 2.67337C10.0024 2.09331 9.21567 1.76744 8.39535 1.76744ZM3.53488 4.86047C3.53488 3.57139 4.04697 2.33511 4.95848 1.4236C5.87 0.512083 7.10627 0 8.39535 0C9.68442 0 10.9207 0.512083 11.8322 1.4236C12.7437 2.33511 13.2558 3.57139 13.2558 4.86047C13.2558 6.14954 12.7437 7.38582 11.8322 8.29733C10.9207 9.20885 9.68442 9.72093 8.39535 9.72093C7.10627 9.72093 5.87 9.20885 4.95848 8.29733C4.04697 7.38582 3.53488 6.14954 3.53488 4.86047ZM14.1395 11.0465C13.3192 11.0465 12.5325 11.3724 11.9524 11.9524C11.3724 12.5325 11.0465 13.3192 11.0465 14.1395C11.0465 14.9599 11.3724 15.7466 11.9524 16.3266C12.5325 16.9067 13.3192 17.2326 14.1395 17.2326C14.9599 17.2326 15.7466 16.9067 16.3266 16.3266C16.9067 15.7466 17.2326 14.9599 17.2326 14.1395C17.2326 13.3192 16.9067 12.5325 16.3266 11.9524C15.7466 11.3724 14.9599 11.0465 14.1395 11.0465ZM9.27907 14.1395C9.27907 13.5012 9.40479 12.8692 9.64905 12.2795C9.89331 11.6898 10.2513 11.154 10.7027 10.7027C11.154 10.2513 11.6898 9.89331 12.2795 9.64905C12.8692 9.40479 13.5012 9.27907 14.1395 9.27907C14.7778 9.27907 15.4099 9.40479 15.9996 9.64905C16.5893 9.89331 17.1251 10.2513 17.5764 10.7027C18.0277 11.154 18.3858 11.6898 18.63 12.2795C18.8743 12.8692 19 13.5012 19 14.1395C19 15.4286 18.4879 16.6649 17.5764 17.5764C16.6649 18.4879 15.4286 19 14.1395 19C12.8505 19 11.6142 18.4879 10.7027 17.5764C9.79115 16.6649 9.27907 15.4286 9.27907 14.1395ZM5.30233 12.3721C4.36482 12.3721 3.4657 12.7445 2.80279 13.4074C2.13987 14.0704 1.76744 14.9695 1.76744 15.907H7.99767V17.6744H0V15.907C0 14.5007 0.558636 13.152 1.55302 12.1577C2.54739 11.1633 3.89606 10.6047 5.30233 10.6047H7.95349V12.3721H5.30233ZM15.0233 12.1529V13.7737L16.2728 15.0233L15.0233 16.2728L13.2558 14.5054V12.1529H15.0233Z" fill="#407BFF"/>
</svg>
