<svg width="20" height="15" viewBox="0 0 20 15" fill="none" xmlns="http://www.w3.org/2000/svg">
<path d="M3.63636 0H20V11.25H3.63636V0ZM11.8182 2.8125C12.5415 2.8125 13.2352 3.10882 13.7467 3.63626C14.2581 4.16371 14.5455 4.87908 14.5455 5.625C14.5455 6.37092 14.2581 7.08629 13.7467 7.61374C13.2352 8.14118 12.5415 8.4375 11.8182 8.4375C11.0949 8.4375 10.4012 8.14118 9.88971 7.61374C9.37825 7.08629 9.09091 6.37092 9.09091 5.625C9.09091 4.87908 9.37825 4.16371 9.88971 3.63626C10.4012 3.10882 11.0949 2.8125 11.8182 2.8125ZM7.27273 1.875C7.27273 2.37228 7.08117 2.84919 6.74019 3.20082C6.39922 3.55246 5.93676 3.75 5.45455 3.75V7.5C5.93676 7.5 6.39922 7.69754 6.74019 8.04918C7.08117 8.40081 7.27273 8.87772 7.27273 9.375H16.3636C16.3636 8.87772 16.5552 8.40081 16.8962 8.04918C17.2371 7.69754 17.6996 7.5 18.1818 7.5V3.75C17.6996 3.75 17.2371 3.55246 16.8962 3.20082C16.5552 2.84919 16.3636 2.37228 16.3636 1.875H7.27273ZM0 3.75H1.81818V13.125H16.3636V15H0V3.75Z" fill="#83BF4F"/>
</svg>
