<svg width="18" height="17" viewBox="0 0 18 17" fill="none" xmlns="http://www.w3.org/2000/svg">
<path d="M5.66667 5.50004H12.3333M5.66667 8.83337H10.6667M14 1.33337C14.663 1.33337 15.2989 1.59677 15.7678 2.06561C16.2366 2.53445 16.5 3.17033 16.5 3.83337V10.5C16.5 11.1631 16.2366 11.799 15.7678 12.2678C15.2989 12.7366 14.663 13 14 13H9.83333L5.66667 15.5V13H4C3.33696 13 2.70107 12.7366 2.23223 12.2678C1.76339 11.799 1.5 11.1631 1.5 10.5V3.83337C1.5 3.17033 1.76339 2.53445 2.23223 2.06561C2.70107 1.59677 3.33696 1.33337 4 1.33337H14Z" stroke="#014B8A" stroke-width="2" stroke-linecap="round" stroke-linejoin="round"/>
</svg>
