<svg width="14" height="10" viewBox="0 0 14 10" fill="none" xmlns="http://www.w3.org/2000/svg">
<path fill-rule="evenodd" clip-rule="evenodd" d="M0 4.84615C0 3.56087 0.510576 2.32824 1.41941 1.41941C2.32824 0.510575 3.56087 0 4.84615 0H10.5897C11.4942 0 12.3616 0.359294 13.0012 0.998841C13.6407 1.63839 14 2.5058 14 3.41026C14 4.31471 13.6407 5.18212 13.0012 5.82167C12.3616 6.46122 11.4942 6.82051 10.5897 6.82051H4.74349C4.21985 6.82051 3.71767 6.6125 3.3474 6.24224C2.97714 5.87197 2.76913 5.36979 2.76913 4.84615C2.76913 4.32252 2.97714 3.82033 3.3474 3.45007C3.71767 3.07981 4.21985 2.87179 4.74349 2.87179H10.3844C10.5272 2.87179 10.6642 2.92853 10.7652 3.02951C10.8661 3.13049 10.9229 3.26745 10.9229 3.41026C10.9229 3.55307 10.8661 3.69002 10.7652 3.79101C10.6642 3.89199 10.5272 3.94872 10.3844 3.94872H4.74349C4.50547 3.94872 4.27721 4.04327 4.1089 4.21157C3.9406 4.37987 3.84605 4.60814 3.84605 4.84615C3.84605 5.08417 3.9406 5.31243 4.1089 5.48074C4.27721 5.64904 4.50547 5.74359 4.74349 5.74359H10.5897C11.2086 5.74359 11.8021 5.49776 12.2397 5.06017C12.6772 4.62259 12.9231 4.02909 12.9231 3.41026C12.9231 2.79142 12.6772 2.19793 12.2397 1.76034C11.8021 1.32276 11.2086 1.07692 10.5897 1.07692H4.84615C3.84649 1.07692 2.88777 1.47404 2.18091 2.1809C1.47404 2.88777 1.07692 3.84649 1.07692 4.84615C1.07692 5.84582 1.47404 6.80453 2.18091 7.5114C2.88777 8.21827 3.84649 8.61538 4.84615 8.61538H10.3844C10.5272 8.61538 10.6642 8.67211 10.7652 8.7731C10.8661 8.87408 10.9229 9.01104 10.9229 9.15385C10.9229 9.29665 10.8661 9.43361 10.7652 9.5346C10.6642 9.63558 10.5272 9.69231 10.3844 9.69231H4.84615C3.56087 9.69231 2.32824 9.18173 1.41941 8.2729C0.510576 7.36407 0 6.13143 0 4.84615Z" fill="#848484"/>
</svg>
