<svg width="18" height="19" viewBox="0 0 18 19" fill="none" xmlns="http://www.w3.org/2000/svg">
<path d="M11.0117 0.048584L13.7374 3.86801L15.5349 3.25516L17.1754 8.0543H18V18.34H0V8.0543H0.437143V8.04573L0.992571 8.05087L11.0117 0.048584ZM6.76886 8.0543H15.3643L14.4754 5.45458L13.1709 5.87201L6.76886 8.0543ZM5.43343 6.69744L12.0429 4.44573L10.668 2.51716L5.43343 6.69744ZM3.42857 9.76858H1.71429V11.4829C2.16894 11.4829 2.60498 11.3023 2.92647 10.9808C3.24796 10.6593 3.42857 10.2232 3.42857 9.76858ZM12 13.1972C12 12.8032 11.9224 12.4131 11.7716 12.0491C11.6209 11.6851 11.3999 11.3544 11.1213 11.0758C10.8427 10.7973 10.512 10.5763 10.1481 10.4255C9.78407 10.2748 9.39397 10.1972 9 10.1972C8.60603 10.1972 8.21593 10.2748 7.85195 10.4255C7.48797 10.5763 7.15726 10.7973 6.87868 11.0758C6.6001 11.3544 6.37913 11.6851 6.22836 12.0491C6.0776 12.4131 6 12.8032 6 13.1972C6 13.9928 6.31607 14.7559 6.87868 15.3185C7.44129 15.8811 8.20435 16.1972 9 16.1972C9.79565 16.1972 10.5587 15.8811 11.1213 15.3185C11.6839 14.7559 12 13.9928 12 13.1972ZM16.2857 16.6257V14.9114C15.8311 14.9114 15.395 15.0921 15.0735 15.4135C14.752 15.735 14.5714 16.1711 14.5714 16.6257H16.2857ZM14.5714 9.76858C14.5714 10.2232 14.752 10.6593 15.0735 10.9808C15.395 11.3023 15.8311 11.4829 16.2857 11.4829V9.76858H14.5714ZM1.71429 16.6257H3.42857C3.42857 16.1711 3.24796 15.735 2.92647 15.4135C2.60498 15.0921 2.16894 14.9114 1.71429 14.9114V16.6257Z" fill="#0C9262"/>
<path d="M11 13C11 13.5304 10.7893 14.0391 10.4142 14.4142C10.0391 14.7893 9.53043 15 9 15C8.46957 15 7.96086 14.7893 7.58579 14.4142C7.21071 14.0391 7 13.5304 7 13C7 12.4696 7.21071 11.9609 7.58579 11.5858C7.96086 11.2107 8.46957 11 9 11C9.53043 11 10.0391 11.2107 10.4142 11.5858C10.7893 11.9609 11 12.4696 11 13Z" fill="#0C9262"/>
</svg>
