<svg width="16" height="14" viewBox="0 0 16 14" fill="none" xmlns="http://www.w3.org/2000/svg">
<path d="M15.85 12.1083L0.9 0.421086C0.858994 0.388256 0.811924 0.363823 0.761477 0.349184C0.711029 0.334544 0.658192 0.329985 0.605982 0.335765C0.553773 0.341546 0.503213 0.357553 0.457189 0.382873C0.411166 0.408193 0.37058 0.442331 0.33775 0.483336L0.0877501 0.795586C0.0548426 0.836605 0.0303465 0.883711 0.0156636 0.934208C0.000980642 0.984704 -0.00360098 1.0376 0.0021809 1.08987C0.00796277 1.14214 0.0239947 1.19275 0.0493592 1.23882C0.0747237 1.28489 0.108923 1.3255 0.15 1.35834L15.1 13.0456C15.141 13.0784 15.1881 13.1028 15.2385 13.1175C15.289 13.1321 15.3418 13.1367 15.394 13.1309C15.4462 13.1251 15.4968 13.1091 15.5428 13.0838C15.5888 13.0585 15.6294 13.0243 15.6622 12.9833L15.9122 12.6711C15.9451 12.6301 15.9696 12.583 15.9843 12.5325C15.999 12.482 16.0036 12.4291 15.9978 12.3768C15.992 12.3245 15.976 12.2739 15.9506 12.2279C15.9253 12.1818 15.8911 12.1412 15.85 12.1083V12.1083ZM7.41975 3.99509L10.7895 6.62959C10.734 5.13109 9.51199 3.93334 8 3.93334C7.80496 3.9337 7.61049 3.9544 7.41975 3.99509ZM8.58024 9.47184L5.2105 6.83734C5.26625 8.33559 6.48825 9.53334 8 9.53334C8.19502 9.53292 8.38947 9.51231 8.58024 9.47184V9.47184ZM8 3.13334C10.4662 3.13334 12.7272 4.50834 13.9482 6.73334C13.6489 7.28093 13.2791 7.78691 12.8482 8.23834L13.7917 8.97584C14.317 8.41388 14.7621 7.78198 15.1142 7.09809C15.1714 6.98496 15.2012 6.85997 15.2012 6.73321C15.2012 6.60645 15.1714 6.48146 15.1142 6.36834C13.7572 3.72309 11.0732 1.93334 8 1.93334C7.0825 1.93334 6.20725 2.10834 5.38425 2.40359L6.5445 3.31084C7.018 3.20334 7.503 3.13334 8 3.13334ZM8 10.3333C5.53375 10.3333 3.273 8.95834 2.05175 6.73334C2.35144 6.18575 2.72169 5.67985 3.153 5.22859L2.2095 4.49109C1.68429 5.05296 1.23932 5.68478 0.88725 6.36859C0.83006 6.48171 0.800263 6.6067 0.800263 6.73346C0.800263 6.86022 0.83006 6.98521 0.88725 7.09834C2.243 9.74359 4.927 11.5333 8 11.5333C8.91749 11.5333 9.79274 11.3571 10.6157 11.0631L9.45549 10.1561C8.98199 10.2633 8.49725 10.3333 8 10.3333Z" fill="#4267B2"/>
</svg>
