<svg width="39" height="39" viewBox="0 0 39 39" fill="none" xmlns="http://www.w3.org/2000/svg">
<path d="M10.4 15.6H13V13H10.4V15.6ZM26 15.6H28.6V13H26V15.6ZM26.26 22.62C25.4729 23.6695 24.4523 24.5212 23.279 25.1079C22.1056 25.6946 20.8118 26 19.5 26C18.1882 26 16.8944 25.6946 15.721 25.1079C14.5477 24.5212 13.5271 23.6695 12.74 22.62L10.66 24.18C15.08 30.0742 23.92 30.0742 28.34 24.18L26.26 22.62ZM2.6 13V6.5H0V13H2.6ZM6.5 2.6H13V0H6.5V2.6ZM2.6 6.5C2.6 5.46566 3.01089 4.47368 3.74228 3.74228C4.47368 3.01089 5.46566 2.6 6.5 2.6V0C4.77609 0 3.12279 0.684819 1.90381 1.90381C0.684819 3.12279 0 4.77609 0 6.5H2.6ZM0 26V32.5H2.6V26H0ZM6.5 39H13V36.4H6.5V39ZM0 32.5C0 34.2239 0.684819 35.8772 1.90381 37.0962C3.12279 38.3152 4.77609 39 6.5 39V36.4C5.46566 36.4 4.47368 35.9891 3.74228 35.2577C3.01089 34.5263 2.6 33.5343 2.6 32.5H0ZM26 2.6H32.5V0H26V2.6ZM36.4 6.5V13H39V6.5H36.4ZM32.5 2.6C33.5343 2.6 34.5263 3.01089 35.2577 3.74228C35.9891 4.47368 36.4 5.46566 36.4 6.5H39C39 4.77609 38.3152 3.12279 37.0962 1.90381C35.8772 0.684819 34.2239 0 32.5 0V2.6ZM26 39H32.5V36.4H26V39ZM39 32.5V26H36.4V32.5H39ZM32.5 39C34.2239 39 35.8772 38.3152 37.0962 37.0962C38.3152 35.8772 39 34.2239 39 32.5H36.4C36.4 33.5343 35.9891 34.5263 35.2577 35.2577C34.5263 35.9891 33.5343 36.4 32.5 36.4V39Z" fill="white"/>
</svg>
