<svg width="166" height="166" viewBox="0 0 166 166" fill="none" xmlns="http://www.w3.org/2000/svg">
<path fill-rule="evenodd" clip-rule="evenodd" d="M160.203 92.6547C163.406 92.6547 165.996 95.2443 165.996 98.4397V98.8796C165.996 113.072 165.996 124.31 164.817 133.1C163.597 142.146 161.033 149.483 155.256 155.26C149.479 161.037 142.142 163.601 133.095 164.821C124.298 166 113.06 166 98.8754 166H98.4355C96.9381 165.943 95.5209 165.309 94.4815 164.229C93.4422 163.15 92.8615 161.709 92.8615 160.211C92.8615 158.712 93.4422 157.272 94.4815 156.193C95.5209 155.113 96.9381 154.478 98.4355 154.422C113.159 154.422 123.617 154.405 131.552 153.343C139.32 152.297 143.802 150.338 147.072 147.068C150.334 143.806 152.293 139.324 153.339 131.556C154.401 123.621 154.418 113.164 154.418 98.4397C154.418 95.2443 157.007 92.6547 160.203 92.6547ZM5.79325 92.6547C8.98867 92.6547 11.5782 95.2443 11.5782 98.4397C11.5782 113.164 11.5948 123.621 12.6572 131.556C13.703 139.324 15.6617 143.806 18.9318 147.076C22.2019 150.338 26.6755 152.297 34.4441 153.343C42.3787 154.405 52.8365 154.422 67.5603 154.422C68.339 154.392 69.1156 154.52 69.8437 154.798C70.5718 155.076 71.2364 155.497 71.7977 156.038C72.3591 156.578 72.8056 157.226 73.1106 157.943C73.4156 158.66 73.5728 159.432 73.5728 160.211C73.5728 160.99 73.4156 161.761 73.1106 162.478C72.8056 163.195 72.3591 163.844 71.7977 164.384C71.2364 164.925 70.5718 165.346 69.8437 165.624C69.1156 165.902 68.339 166.029 67.5603 166H67.1204C52.9278 166 41.6899 166 32.9004 164.821C23.8536 163.601 16.5166 161.037 10.7399 155.26C4.96328 149.483 2.39864 142.146 1.17857 133.1C-3.7103e-07 124.302 0 113.064 0 98.8796V98.4397C0 95.2443 2.58953 92.6547 5.79325 92.6547ZM67.1204 0.00415011H67.5603C68.339 -0.0253392 69.1156 0.102567 69.8437 0.380212C70.5718 0.657857 71.2364 1.07954 71.7977 1.62001C72.3591 2.16049 72.8056 2.80866 73.1106 3.52572C73.4156 4.24279 73.5728 5.01402 73.5728 5.79326C73.5728 6.57249 73.4156 7.34372 73.1106 8.06079C72.8056 8.77785 72.3591 9.42602 71.7977 9.9665C71.2364 10.507 70.5718 10.9287 69.8437 11.2063C69.1156 11.4839 68.339 11.6118 67.5603 11.5824C52.8365 11.5824 42.3787 11.599 34.4441 12.6613C26.6755 13.7071 22.2019 15.6659 18.9235 18.936C15.6617 22.2061 13.703 26.6797 12.6572 34.4483C11.5948 42.3829 11.5782 52.8406 11.5782 67.5645C11.5215 69.0619 10.8868 70.4791 9.80729 71.5185C8.72783 72.5578 7.28761 73.1385 5.7891 73.1385C4.2906 73.1385 2.85038 72.5578 1.77092 71.5185C0.691447 70.4791 0.0567092 69.0619 0 67.5645V67.1246C0 52.9319 -3.7103e-07 41.694 1.17857 32.9045C2.39864 23.8578 4.96328 16.5207 10.7399 10.7441C16.5166 4.96743 23.8536 2.40279 32.9004 1.18272C41.6982 0.00414972 52.9361 0.00415011 67.1204 0.00415011ZM131.552 12.6613C123.617 11.599 113.159 11.5824 98.4355 11.5824C96.9381 11.5257 95.5209 10.8909 94.4815 9.81145C93.4422 8.73198 92.8615 7.29176 92.8615 5.79326C92.8615 4.29475 93.4422 2.85453 94.4815 1.77507C95.5209 0.695597 96.9381 0.0608593 98.4355 0.00415011H98.8754C113.068 0.00415011 124.306 0.00414972 133.095 1.18272C142.142 2.40279 149.479 4.96743 155.256 10.7441C161.033 16.5207 163.597 23.8578 164.817 32.9045C165.996 41.7023 165.996 52.9402 165.996 67.1246V67.5645C166.025 68.3431 165.897 69.1198 165.62 69.8479C165.342 70.576 164.92 71.2405 164.38 71.8019C163.84 72.3632 163.191 72.8097 162.474 73.1147C161.757 73.4197 160.986 73.577 160.207 73.577C159.428 73.577 158.656 73.4197 157.939 73.1147C157.222 72.8097 156.574 72.3632 156.033 71.8019C155.493 71.2405 155.071 70.576 154.794 69.8479C154.516 69.1198 154.388 68.3431 154.418 67.5645C154.418 52.8406 154.401 42.3829 153.339 34.4483C152.293 26.6797 150.334 22.2061 147.064 18.9277C143.802 15.6659 139.32 13.7071 131.552 12.6613Z" fill="#014B8A"/>
</svg>
