<svg width="18" height="18" viewBox="0 0 18 18" fill="none" xmlns="http://www.w3.org/2000/svg">
<path d="M8.95499 14.4C9.26999 14.4 9.53639 14.2911 9.75419 14.0733C9.97199 13.8555 10.0806 13.5894 10.08 13.275C10.0794 12.9606 9.97079 12.6942 9.75419 12.4758C9.53759 12.2574 9.27119 12.1488 8.95499 12.15C8.63879 12.1512 8.37269 12.2601 8.1567 12.4767C7.9407 12.6933 7.8318 12.9594 7.83 13.275C7.8282 13.5906 7.9371 13.857 8.1567 14.0742C8.3763 14.2914 8.64239 14.4 8.95499 14.4ZM8.145 10.935H9.80999C9.80999 10.44 9.86639 10.05 9.97919 9.76499C10.092 9.47999 10.4106 9.08999 10.935 8.59499C11.325 8.20499 11.6325 7.83359 11.8575 7.48079C12.0825 7.128 12.195 6.7044 12.195 6.21C12.195 5.37 11.8875 4.725 11.2725 4.275C10.6575 3.825 9.92999 3.6 9.09 3.6C8.235 3.6 7.5414 3.825 7.0092 4.275C6.477 4.725 6.1056 5.265 5.895 5.895L7.38 6.48C7.455 6.21 7.6239 5.9175 7.88669 5.6025C8.1495 5.2875 8.5506 5.13 9.09 5.13C9.56999 5.13 9.92999 5.2614 10.17 5.5242C10.41 5.787 10.53 6.0756 10.53 6.39C10.53 6.69 10.44 6.9714 10.26 7.23419C10.08 7.49699 9.85499 7.74059 9.58499 7.96499C8.92499 8.54999 8.51999 8.99249 8.37 9.29249C8.22 9.59249 8.145 10.14 8.145 10.935ZM8.99999 18C7.755 18 6.585 17.7639 5.49 17.2917C4.395 16.8195 3.4425 16.1781 2.6325 15.3675C1.8225 14.5569 1.1814 13.6044 0.709201 12.51C0.237001 11.4156 0.000601139 10.2456 1.13924e-06 8.99999C-0.00059886 7.75439 0.235801 6.5844 0.709201 5.49C1.1826 4.3956 1.8237 3.4431 2.6325 2.6325C3.4413 1.8219 4.3938 1.1808 5.49 0.709204C6.5862 0.237604 7.7562 0.00120454 8.99999 4.54545e-06C10.2438 -0.00119545 11.4138 0.235204 12.51 0.709204C13.6062 1.1832 14.5587 1.8243 15.3675 2.6325C16.1763 3.4407 16.8177 4.3932 17.2917 5.49C17.7657 6.5868 18.0018 7.75679 18 8.99999C17.9982 10.2432 17.7618 11.4132 17.2908 12.51C16.8198 13.6068 16.1787 14.5593 15.3675 15.3675C14.5563 16.1757 13.6038 16.8171 12.51 17.2917C11.4162 17.7663 10.2462 18.0024 8.99999 18ZM8.99999 16.2C11.01 16.2 12.7125 15.5025 14.1075 14.1075C15.5025 12.7125 16.2 11.01 16.2 8.99999C16.2 6.99 15.5025 5.2875 14.1075 3.8925C12.7125 2.4975 11.01 1.8 8.99999 1.8C6.99 1.8 5.2875 2.4975 3.8925 3.8925C2.4975 5.2875 1.8 6.99 1.8 8.99999C1.8 11.01 2.4975 12.7125 3.8925 14.1075C5.2875 15.5025 6.99 16.2 8.99999 16.2Z" fill="#014B8A"/>
</svg>
