<svg width="9" height="9" viewBox="0 0 9 9" fill="none" xmlns="http://www.w3.org/2000/svg">
<g clip-path="url(#clip0_880_107)">
<path d="M4.03418 8.26611C4.00488 8.37744 3.98291 8.49023 3.96826 8.60449C3.95361 8.71875 3.94336 8.83594 3.9375 8.95605C3.5625 8.91211 3.20508 8.82422 2.86523 8.69238C2.52539 8.56055 2.21045 8.39209 1.92041 8.18701C1.63037 7.98193 1.3667 7.74463 1.12939 7.4751C0.89209 7.20557 0.689941 6.9126 0.522949 6.59619C0.355957 6.27979 0.227051 5.9458 0.13623 5.59424C0.0454102 5.24268 0 4.87793 0 4.5C0 4.08691 0.0527344 3.68848 0.158203 3.30469C0.263672 2.9209 0.414551 2.56201 0.61084 2.22803C0.807129 1.89404 1.0415 1.59082 1.31396 1.31836C1.58643 1.0459 1.89111 0.811523 2.22803 0.615234C2.56494 0.418945 2.92236 0.268066 3.30029 0.162598C3.67822 0.0571289 4.07812 0.00292969 4.5 0C4.91309 0 5.31006 0.0527344 5.69092 0.158203C6.07178 0.263672 6.43066 0.416016 6.76758 0.615234C7.10449 0.814453 7.40771 1.04883 7.67725 1.31836C7.94678 1.58789 8.18262 1.89258 8.38477 2.23242C8.58691 2.57227 8.73779 2.92969 8.8374 3.30469C8.93701 3.67969 8.99121 4.07812 9 4.5H8.68799C8.64697 4.43262 8.60449 4.3667 8.56055 4.30225C8.5166 4.23779 8.46533 4.17627 8.40674 4.11768C8.38916 3.86279 8.34375 3.61523 8.27051 3.375H2.88721C2.86377 3.5625 2.84619 3.74854 2.83447 3.93311C2.82275 4.11768 2.81543 4.30664 2.8125 4.5C2.8125 4.69043 2.81836 4.87793 2.83008 5.0625C2.8418 5.24707 2.86084 5.43457 2.88721 5.625H4.5C4.5 5.71875 4.50732 5.8125 4.52197 5.90625C4.53662 6 4.55566 6.09375 4.5791 6.1875H2.98389C3.01904 6.35449 3.06592 6.5376 3.12451 6.73682C3.18311 6.93604 3.25635 7.13086 3.34424 7.32129C3.43213 7.51172 3.5332 7.69043 3.64746 7.85742C3.76172 8.02441 3.89062 8.16064 4.03418 8.26611ZM8.05518 2.8125C7.94092 2.5752 7.80615 2.35254 7.65088 2.14453C7.49561 1.93652 7.31982 1.74609 7.12354 1.57324C6.92725 1.40039 6.71924 1.24658 6.49951 1.11182C6.27979 0.977051 6.04248 0.867188 5.7876 0.782227C5.89307 0.928711 5.98682 1.08398 6.06885 1.24805C6.15088 1.41211 6.22559 1.58057 6.29297 1.75342C6.36035 1.92627 6.41748 2.10205 6.46436 2.28076C6.51123 2.45947 6.55225 2.63672 6.5874 2.8125H8.05518ZM4.5 0.5625C4.35352 0.5625 4.21875 0.602051 4.0957 0.681152C3.97266 0.760254 3.8584 0.864258 3.75293 0.993164C3.64746 1.12207 3.55371 1.26709 3.47168 1.42822C3.38965 1.58936 3.31494 1.75488 3.24756 1.9248C3.18018 2.09473 3.12598 2.25586 3.08496 2.4082C3.04395 2.56055 3.01025 2.69531 2.98389 2.8125H6.01611C5.99268 2.69824 5.95898 2.56348 5.91504 2.4082C5.87109 2.25293 5.81689 2.0918 5.75244 1.9248C5.68799 1.75781 5.61475 1.59375 5.53271 1.43262C5.45068 1.27148 5.35693 1.125 5.25146 0.993164C5.146 0.861328 5.03027 0.757324 4.9043 0.681152C4.77832 0.60498 4.64355 0.56543 4.5 0.5625ZM3.2168 0.777832C2.96777 0.862793 2.73047 0.971191 2.50488 1.10303C2.2793 1.23486 2.06982 1.38867 1.87646 1.56445C1.68311 1.74023 1.50732 1.93213 1.34912 2.14014C1.19092 2.34814 1.05615 2.57227 0.944824 2.8125H2.4126C2.44482 2.65137 2.48438 2.47998 2.53125 2.29834C2.57812 2.1167 2.63672 1.93506 2.70703 1.75342C2.77734 1.57178 2.85352 1.39746 2.93555 1.23047C3.01758 1.06348 3.11133 0.912598 3.2168 0.777832ZM0.5625 4.5C0.5625 4.88965 0.616699 5.26465 0.725098 5.625H2.32031C2.29688 5.4375 2.2793 5.25146 2.26758 5.06689C2.25586 4.88232 2.25 4.69336 2.25 4.5C2.25 4.30957 2.25586 4.12207 2.26758 3.9375C2.2793 3.75293 2.29688 3.56543 2.32031 3.375H0.725098C0.616699 3.73535 0.5625 4.11035 0.5625 4.5ZM0.936035 6.1875C1.05029 6.4248 1.18506 6.64746 1.34033 6.85547C1.49561 7.06348 1.67139 7.25537 1.86768 7.43115C2.06396 7.60693 2.2749 7.75928 2.50049 7.88818C2.72607 8.01709 2.96338 8.12695 3.2124 8.21777C3.10693 8.07129 3.01318 7.91602 2.93115 7.75195C2.84912 7.58789 2.77441 7.41943 2.70703 7.24658C2.63965 7.07373 2.58252 6.89795 2.53564 6.71924C2.48877 6.54053 2.44629 6.36328 2.4082 6.1875H0.936035ZM7.74316 6.98291C7.93359 7.07959 8.10645 7.19824 8.26172 7.33887C8.41699 7.47949 8.54883 7.6377 8.65723 7.81348C8.76562 7.98926 8.85059 8.17676 8.91211 8.37598C8.97363 8.5752 9.00293 8.7832 9 9H8.4375C8.4375 8.76855 8.39355 8.55029 8.30566 8.34521C8.21777 8.14014 8.09766 7.96143 7.94531 7.80908C7.79297 7.65674 7.61279 7.53516 7.40479 7.44434C7.19678 7.35352 6.97852 7.30957 6.75 7.3125C6.51562 7.3125 6.29736 7.35645 6.09521 7.44434C5.89307 7.53223 5.71436 7.65234 5.55908 7.80469C5.40381 7.95703 5.28223 8.13721 5.19434 8.34521C5.10645 8.55322 5.0625 8.77148 5.0625 9H4.5C4.5 8.78613 4.5293 8.57959 4.58789 8.38037C4.64648 8.18115 4.72998 7.99219 4.83838 7.81348C4.94678 7.63477 5.07861 7.47656 5.23389 7.33887C5.38916 7.20117 5.56201 7.08252 5.75244 6.98291C5.53271 6.82471 5.36279 6.62695 5.24268 6.38965C5.12256 6.15234 5.0625 5.89746 5.0625 5.625C5.0625 5.39355 5.10645 5.17529 5.19434 4.97021C5.28223 4.76514 5.40234 4.58643 5.55469 4.43408C5.70703 4.28174 5.88574 4.16016 6.09082 4.06934C6.2959 3.97852 6.51562 3.93457 6.75 3.9375C6.98145 3.9375 7.19971 3.98145 7.40479 4.06934C7.60986 4.15723 7.78857 4.27734 7.94092 4.42969C8.09326 4.58203 8.21484 4.76221 8.30566 4.97021C8.39648 5.17822 8.44043 5.39648 8.4375 5.625C8.4375 5.89453 8.37744 6.14795 8.25732 6.38525C8.13721 6.62256 7.96582 6.82178 7.74316 6.98291ZM6.75 6.75C6.90527 6.75 7.05029 6.7207 7.18506 6.66211C7.31982 6.60352 7.43994 6.52295 7.54541 6.42041C7.65088 6.31787 7.73145 6.19922 7.78711 6.06445C7.84277 5.92969 7.87207 5.7832 7.875 5.625C7.875 5.46973 7.8457 5.32471 7.78711 5.18994C7.72852 5.05518 7.64795 4.93506 7.54541 4.82959C7.44287 4.72412 7.32422 4.64355 7.18945 4.58789C7.05469 4.53223 6.9082 4.50293 6.75 4.5C6.59473 4.5 6.44971 4.5293 6.31494 4.58789C6.18018 4.64648 6.06006 4.72705 5.95459 4.82959C5.84912 4.93213 5.76855 5.05078 5.71289 5.18555C5.65723 5.32031 5.62793 5.4668 5.625 5.625C5.625 5.78027 5.6543 5.92529 5.71289 6.06006C5.77148 6.19482 5.85205 6.31494 5.95459 6.42041C6.05713 6.52588 6.17578 6.60645 6.31055 6.66211C6.44531 6.71777 6.5918 6.74707 6.75 6.75Z" fill="black"/>
</g>
<defs>
<clipPath id="clip0_880_107">
<rect width="9" height="9" fill="white"/>
</clipPath>
</defs>
</svg>
