<svg width="20" height="18" viewBox="0 0 20 18" fill="none" xmlns="http://www.w3.org/2000/svg">
<path d="M8 2C9.06087 2 10.0783 2.42143 10.8284 3.17157C11.5786 3.92172 12 4.93913 12 6C12 7.06087 11.5786 8.07828 10.8284 8.82843C10.0783 9.57857 9.06087 10 8 10C6.93913 10 5.92172 9.57857 5.17157 8.82843C4.42143 8.07828 4 7.06087 4 6C4 4.93913 4.42143 3.92172 5.17157 3.17157C5.92172 2.42143 6.93913 2 8 2ZM8 12C12.42 12 16 13.79 16 16V18H0V16C0 13.79 3.58 12 8 12Z" fill="#5D70BC"/>
<path d="M19.125 5C19.3571 5 19.5796 5.09219 19.7437 5.25628C19.9078 5.42038 20 5.64294 20 5.875V12.875C20 13.1071 19.9078 13.3296 19.7437 13.4937C19.5796 13.6578 19.3571 13.75 19.125 13.75H13.875C13.6429 13.75 13.4204 13.6578 13.2563 13.4937C13.0922 13.3296 13 13.1071 13 12.875V5.875C13 5.64294 13.0922 5.42038 13.2563 5.25628C13.4204 5.09219 13.6429 5 13.875 5H19.125ZM16.5 9.8125H15.1875C15.0715 9.8125 14.9602 9.85859 14.8781 9.94064C14.7961 10.0227 14.75 10.134 14.75 10.25C14.75 10.366 14.7961 10.4773 14.8781 10.5594C14.9602 10.6414 15.0715 10.6875 15.1875 10.6875H16.5C16.616 10.6875 16.7273 10.6414 16.8094 10.5594C16.8914 10.4773 16.9375 10.366 16.9375 10.25C16.9375 10.134 16.8914 10.0227 16.8094 9.94064C16.7273 9.85859 16.616 9.8125 16.5 9.8125ZM17.8125 7.625H15.1875C15.076 7.62512 14.9687 7.66782 14.8877 7.74437C14.8066 7.82092 14.7578 7.92554 14.7512 8.03686C14.7447 8.14818 14.7809 8.25779 14.8525 8.3433C14.9241 8.42881 15.0256 8.48377 15.1363 8.49694L15.1875 8.5H17.8125C17.924 8.49988 18.0313 8.45718 18.1123 8.38063C18.1934 8.30408 18.2422 8.19946 18.2488 8.08814C18.2553 7.97682 18.2191 7.86721 18.1475 7.7817C18.0759 7.69619 17.9744 7.64123 17.8637 7.62806L17.8125 7.625Z" fill="#5D70BC"/>
<path d="M11 2.79167C10.7348 2.79167 10.4804 2.68631 10.2929 2.49877C10.1054 2.31124 10 2.05688 10 1.79167C10 1.125 11 0 11 0C11 0 12 1.125 12 1.79167C12 2.05688 11.8946 2.31124 11.7071 2.49877C11.5196 2.68631 11.2652 2.79167 11 2.79167Z" fill="#5D70BC"/>
</svg>
