<svg width="19" height="20" viewBox="0 0 19 20" fill="none" xmlns="http://www.w3.org/2000/svg">
<circle cx="9.5" cy="10.5" r="9" fill="#F4F3F2" stroke="#014B8A"/>
<path d="M9.128 7.67C8.81067 7.67933 8.526 7.59067 8.274 7.404C8.03133 7.21733 7.84467 6.98867 7.714 6.718C7.59267 6.438 7.546 6.172 7.574 5.92C7.62067 5.53733 7.79333 5.26667 8.092 5.108C8.39067 4.94933 8.70333 4.86533 9.03 4.856C9.49667 4.83733 9.86067 4.95867 10.122 5.22C10.3833 5.48133 10.514 5.78 10.514 6.116C10.514 6.34 10.4627 6.56867 10.36 6.802C10.2667 7.03533 10.1173 7.236 9.912 7.404C9.70667 7.56267 9.44533 7.65133 9.128 7.67ZM10.612 14.586C10.6213 14.754 10.6727 14.8987 10.766 15.02C10.8687 15.132 10.99 15.2393 11.13 15.342C11.0647 15.426 10.9807 15.5147 10.878 15.608C10.7753 15.7013 10.6213 15.79 10.416 15.874C10.22 15.9487 9.93533 16.0093 9.562 16.056C9.44067 16.0653 9.28667 16.0513 9.1 16.014C8.91333 15.986 8.72667 15.8973 8.54 15.748C8.36267 15.5893 8.218 15.342 8.106 15.006C7.994 14.6607 7.94733 14.1893 7.966 13.592C7.97533 13.4893 7.97533 13.2887 7.966 12.99C7.966 12.6913 7.96133 12.3367 7.952 11.926C7.952 11.5153 7.94733 11.0907 7.938 10.652C7.938 10.2133 7.93333 9.80733 7.924 9.434C7.924 9.05133 7.91933 8.74333 7.91 8.51C7.91 8.26733 7.91 8.146 7.91 8.146C7.994 8.13667 8.134 8.12733 8.33 8.118C8.53533 8.09933 8.75933 8.09933 9.002 8.118C9.24467 8.13667 9.478 8.18333 9.702 8.258C9.93533 8.32333 10.1313 8.43067 10.29 8.58C10.458 8.72933 10.556 8.93 10.584 9.182C10.6307 9.53667 10.6493 10.0127 10.64 10.61C10.6307 11.198 10.6167 11.842 10.598 12.542C10.5793 13.2327 10.584 13.914 10.612 14.586Z" fill="#014B8A"/>
</svg>
