<svg width="22" height="22" viewBox="0 0 22 22" fill="none" xmlns="http://www.w3.org/2000/svg">
<path d="M11 1.37697e-06C17.0753 1.37697e-06 22 4.9247 22 11C22 17.0753 17.0753 22 11 22C4.9247 22 0 17.0753 0 11H2.2C2.20024 13.107 2.95647 15.144 4.33123 16.7407C5.706 18.3375 7.60804 19.3879 9.69163 19.7012C11.7752 20.0145 13.9021 19.5697 15.6856 18.4478C17.4691 17.326 18.7909 15.6014 19.4107 13.5876C20.0305 11.5738 19.9071 9.40448 19.0631 7.4739C18.2191 5.54333 16.7104 3.97966 14.8112 3.06713C12.9121 2.15459 10.7485 1.95376 8.71387 2.50114C6.67919 3.04852 4.90846 4.30776 3.7235 6.05H6.6V8.25H0V1.65H2.2V4.4C3.22402 3.03321 4.55252 1.92391 6.08007 1.16014C7.60761 0.396367 9.29215 -0.000853508 11 1.37697e-06ZM12.1 5.5V10.5435L15.6673 14.1108L14.1108 15.6673L9.9 11.4543V5.5H12.1Z" fill="#848484"/>
</svg>
