<svg width="12" height="14" viewBox="0 0 12 14" fill="none" xmlns="http://www.w3.org/2000/svg">
<path d="M3.85714 11.2V4.9H2.57143V11.2M6.64286 11.2V4.9H5.35714V11.2M9.42857 11.2V4.9H8.14286V11.2M10.3114 2.8C11.2371 2.8 12 3.416 12 4.2V11.9C12 12.691 11.2371 13.3 10.3114 13.3C10.3114 13.706 9.90857 14 9.42857 14C9 14 8.57143 13.706 8.57143 13.3H3.42857C3.42857 13.706 3 14 2.57143 14C2.09143 14 1.68857 13.706 1.68857 13.3C0.762857 13.3 0 12.691 0 11.9V4.2C0 3.416 0.762857 2.8 1.68857 2.8H3.42857V0.7C3.42857 0.294 3.82286 0 4.28571 0H7.71429C8.17714 0 8.57143 0.294 8.57143 0.7V2.8M4.71429 1.05V2.8H7.28571V1.05M10.3114 11.9V4.2H1.68857V11.9" fill="#848484"/>
</svg>
