<svg width="14" height="14" viewBox="0 0 14 14" fill="none" xmlns="http://www.w3.org/2000/svg">
<path d="M2.1 11.2V13.8362L3.1605 13.1999L6.4939 11.2H9.8C10.5721 11.2 11.2 10.5721 11.2 9.80005V4.20005C11.2 3.42795 10.5721 2.80005 9.8 2.80005H1.4C0.6279 2.80005 0 3.42795 0 4.20005V9.80005C0 10.5721 0.6279 11.2 1.4 11.2H2.1ZM1.4 4.20005H9.8V9.80005H6.1061L3.5 11.3638V9.80005H1.4V4.20005Z" fill="#848484"/>
<path d="M12.6 0H4.20005C3.42795 0 2.80005 0.6279 2.80005 1.4H11.2C11.9721 1.4 12.6 2.0279 12.6 2.8V8.4C13.3721 8.4 14 7.7721 14 7V1.4C14 0.6279 13.3721 0 12.6 0Z" fill="#848484"/>
</svg>
