<svg width="33" height="33" viewBox="0 0 33 33" fill="none" xmlns="http://www.w3.org/2000/svg">
<path d="M14.8354 9.56863C14.9854 8.89613 14.8704 9.21613 13.9029 7.80113C13.0329 6.53113 13.2129 4.72613 12.1829 3.82863C11.5504 3.27863 10.7579 2.66113 7.80541 4.14613C6.78041 4.66113 4.73291 6.35863 2.41291 7.13613C0.545412 7.76113 1.58041 8.51613 1.97791 8.65613C3.39291 9.15363 5.26541 8.07863 5.26541 8.07863C5.26541 8.07863 2.58041 9.83363 4.15791 10.2486C5.43791 10.5861 7.05041 9.04863 7.05041 9.04863C7.05041 9.04863 5.47041 10.7236 6.76291 11.1536C7.65041 11.4486 9.41291 9.76363 9.41291 9.76363C9.41291 9.76363 8.18041 11.4761 8.77541 11.8386C9.68041 12.3886 11.1629 10.9711 11.1629 10.9711C11.1629 10.9711 9.98541 12.6911 10.6004 12.9711C11.5204 13.3911 12.8854 12.2111 12.8854 12.2111C12.8854 12.2111 14.5654 10.7711 14.8354 9.56863Z" fill="#E0E0E0"/>
<path d="M9.63545 4.02881C9.63545 4.02881 8.02545 4.97381 7.43795 5.73381C7.36045 5.83381 6.87795 6.31631 7.30295 6.59381C7.41045 6.66381 7.73045 6.61881 7.92045 6.50381C8.78545 5.97881 10.3154 4.73381 10.4829 4.79881C10.6504 4.86381 9.11545 5.87381 8.62045 7.09631C8.43545 7.55631 8.79545 7.88631 9.73295 7.33381C10.7529 6.73381 11.6304 5.67631 11.7779 5.68131C11.7779 5.68131 11.3679 6.39631 10.8429 6.96131C10.3079 7.53881 9.93045 8.12631 10.3254 8.31131C10.8229 8.54631 11.8979 7.90881 11.8979 7.90881C11.8979 7.90881 11.2129 8.73881 10.3254 8.92631C10.0129 8.99381 9.76795 8.95131 9.61795 8.78131C9.39045 8.52131 9.47795 8.12131 9.47795 8.12131C9.00545 8.30881 8.19045 8.61381 7.70545 8.20381C7.32795 7.88381 7.84295 6.94631 7.84295 6.94631C7.84295 6.94631 6.93045 7.45131 6.41045 7.29881C6.14045 7.21881 5.72795 6.82881 6.33045 6.00131C7.28045 4.70881 9.63545 4.02881 9.63545 4.02881ZM11.5604 13.1213C12.6029 11.7663 13.6454 10.4138 14.6879 9.05881L14.5979 8.66881C14.5529 8.53131 14.1429 8.51381 13.5754 8.84131C13.1954 9.06131 12.4979 9.85131 12.0504 9.41631C11.7404 9.11631 12.6304 8.04381 12.6304 8.04381C12.5079 8.04631 11.5204 8.70631 11.3629 9.36881C11.2279 9.93131 11.3579 10.5913 12.6279 9.94881C12.6654 9.92881 12.7054 9.90631 12.7429 9.88381C12.5829 10.1363 12.4379 10.4013 12.3154 10.6713C11.9604 11.4513 11.7504 12.2863 11.5604 13.1213Z" fill="#BDBDBD"/>
<path d="M21.0627 3.37158L21.0797 3.38369L21.0627 3.37158Z" fill="url(#paint0_linear_614_143)"/>
<path d="M22.4979 18.2965C19.9854 22.0615 17.8729 26.209 13.0679 27.479C13.0179 27.4915 12.9654 27.4765 12.9304 27.439L5.08043 18.7765C4.84793 18.519 4.96293 18.1115 5.29293 18.004C8.52043 16.944 10.5354 14.419 12.3304 11.7265C14.8054 8.01902 16.9254 3.93902 21.5779 2.60152C21.7554 2.53402 21.9629 2.57652 22.0979 2.72402C23.1404 3.87402 31.0029 11.359 31.0154 11.374C31.0204 11.3765 24.4254 15.4065 22.4979 18.2965Z" fill="#66BB6A"/>
<path d="M15.2428 20.0164C15.0728 19.8464 14.8703 19.7614 14.6353 19.7639C14.4003 19.7664 14.0953 19.8614 13.7178 20.0489C13.2053 20.3214 12.7603 20.4489 12.3878 20.4364C12.0153 20.4214 11.6803 20.2664 11.3853 19.9689C11.0828 19.6664 10.9228 19.3289 10.9078 18.9589C10.8903 18.5889 11.0178 18.2314 11.2903 17.8864L10.8128 17.4064C10.7791 17.372 10.7603 17.3258 10.7603 17.2777C10.7603 17.2295 10.7791 17.1833 10.8128 17.1489L10.9678 16.9939C11.0378 16.9239 11.1528 16.9239 11.2253 16.9939L11.7053 17.4764C12.0578 17.2089 12.4303 17.0989 12.8203 17.1439C13.1703 17.1864 13.5153 17.3589 13.8528 17.6689C13.9178 17.7289 13.9178 17.8339 13.8553 17.8964L13.5703 18.1814C13.5103 18.2414 13.4128 18.2414 13.3503 18.1839C13.1253 17.9889 12.8928 17.8764 12.6553 17.8514C12.3778 17.8214 12.1328 17.9114 11.9228 18.1214C11.7028 18.3414 11.5903 18.5664 11.5878 18.7939C11.5853 19.0239 11.6853 19.2414 11.8878 19.4439C12.0753 19.6339 12.2878 19.7214 12.5228 19.7114C12.7578 19.7014 13.0603 19.6014 13.4353 19.4114C13.8103 19.2214 14.1278 19.1039 14.3978 19.0564C14.6653 19.0089 14.9103 19.0214 15.1303 19.0914C15.3503 19.1639 15.5578 19.2964 15.7528 19.4914C16.0628 19.8039 16.2203 20.1489 16.2228 20.5264C16.2253 20.9039 16.0753 21.2789 15.7703 21.6514L16.1703 22.0514C16.2403 22.1214 16.2403 22.2364 16.1703 22.3089L16.0178 22.4614C15.9478 22.5314 15.8328 22.5314 15.7603 22.4614L15.3603 22.0614C14.9853 22.3714 14.5928 22.5189 14.1853 22.4989C13.8228 22.4814 13.4753 22.3264 13.1453 22.0339C13.1295 22.0196 13.1168 22.0021 13.108 21.9826C13.0992 21.9631 13.0946 21.9421 13.0943 21.9207C13.0941 21.8993 13.0983 21.8782 13.1066 21.8585C13.115 21.8388 13.1273 21.8211 13.1428 21.8064L13.4328 21.5189C13.4903 21.4614 13.5828 21.4564 13.6453 21.5089C13.8678 21.7014 14.0978 21.7989 14.3353 21.8039C14.6078 21.8089 14.8678 21.6864 15.1153 21.4389C15.3578 21.1989 15.4903 20.9489 15.5128 20.6964C15.5303 20.4439 15.4428 20.2164 15.2428 20.0164Z" fill="white"/>
<path d="M15.8828 21.774L15.3578 22.0665L11.3003 17.9015L11.1628 17.7615L11.7053 17.479L15.7628 21.654L15.8828 21.774Z" fill="white"/>
<path opacity="0.5" d="M19.6853 15.5816C21.6763 15.5816 23.2903 13.9676 23.2903 11.9766C23.2903 9.9856 21.6763 8.37158 19.6853 8.37158C17.6943 8.37158 16.0803 9.9856 16.0803 11.9766C16.0803 13.9676 17.6943 15.5816 19.6853 15.5816Z" fill="#2E7D32"/>
<path d="M23.7554 20.1939C22.4679 22.1239 20.6129 25.8064 18.0579 27.8314C15.7129 29.6914 12.7554 30.6089 12.7554 30.6089L4.61792 21.0789L4.95542 18.4639L12.9354 27.4414C12.9679 27.4764 13.0179 27.4939 13.0654 27.4814C17.8729 26.2114 19.9854 22.0639 22.4979 18.2989C24.4254 15.4089 27.3079 12.3289 31.0179 11.3789C31.3129 11.7039 31.1829 14.4289 30.8604 14.5364C27.5729 15.6264 25.5554 17.4914 23.7554 20.1939Z" fill="#2E7D32"/>
<path d="M20.4277 21.469L21.1827 24.2565C21.1827 24.2565 23.4827 20.8915 23.8552 20.0765L23.0202 17.564C21.9052 18.9515 20.4277 21.469 20.4277 21.469Z" fill="#FFC06C"/>
<path d="M20.2329 4.84135C20.4254 5.11885 20.7629 5.40635 21.3054 5.57385C21.4979 5.63385 21.7004 5.66385 21.9029 5.66385C22.3329 5.66385 22.6929 5.53135 22.9354 5.40885C23.5429 6.01885 24.3029 6.76135 25.0379 7.48135C25.7579 8.18635 26.4979 8.91135 27.1004 9.51385C26.9054 9.81135 26.7504 10.2613 26.8154 10.8688C26.8454 11.1488 27.0429 11.4338 27.2529 11.6663C25.9229 12.5213 23.3704 14.4213 20.7529 17.7713C20.2004 18.4788 19.6604 19.2638 19.1404 20.0213C17.8454 21.9063 16.5079 23.8513 14.7279 25.0413C14.5179 24.6988 14.1304 24.2838 13.4379 24.1113C13.2704 24.0688 13.1054 24.0488 12.9479 24.0488C12.5029 24.0488 12.1529 24.2138 11.9029 24.4088L8.12788 20.0688C8.44538 19.8213 8.74288 19.3988 8.77288 18.7463C8.78788 18.4413 8.62538 18.1638 8.44038 17.9538C10.2804 16.5913 12.2229 14.4188 13.2679 12.8588C13.4204 12.6313 13.5779 12.3938 13.7404 12.1488C15.3754 9.68135 17.5904 6.35135 20.2329 4.84135ZM20.4304 4.25635C17.2504 5.83135 14.7179 9.93385 12.9154 12.6188C11.7354 14.3763 9.60288 16.6688 7.76538 17.9063C7.76538 17.9063 8.36788 18.3338 8.34788 18.7213C8.29788 19.7613 7.45288 19.9363 7.45288 19.9363L11.8904 25.0363C11.8904 25.0363 12.2154 24.4663 12.9454 24.4663C13.0629 24.4663 13.1929 24.4813 13.3329 24.5163C14.3379 24.7663 14.5404 25.6513 14.5404 25.6513C17.3754 24.0013 19.0879 20.5838 21.0829 18.0263C23.7904 14.5588 26.4829 12.5938 27.9404 11.7313C27.9404 11.7313 27.2704 11.1888 27.2329 10.8188C27.1304 9.84635 27.6804 9.49635 27.6804 9.49635C26.3929 8.19385 24.2779 6.16635 22.9979 4.86885C22.9979 4.86885 22.5329 5.23385 21.9004 5.23385C21.7504 5.23385 21.5904 5.21385 21.4279 5.16385C20.5079 4.88635 20.4304 4.25635 20.4304 4.25635Z" fill="#2E7D32"/>
<path d="M14.1703 8.91895L11.7378 12.5964L20.4278 21.4689C20.4278 21.4689 21.8478 19.2239 23.0178 17.5639L14.1703 8.91895Z" fill="#FFECB3"/>
<path opacity="0.68" d="M23.3704 18.6187C23.3704 18.6187 21.6554 19.4912 21.1879 22.1512C21.0104 23.1562 21.1854 24.2562 21.1854 24.2562L22.6004 22.0787L23.6129 19.0512L23.3704 18.6187Z" fill="#D69136"/>
<path d="M22.8778 19.1963C23.3753 18.7188 23.5403 18.5713 25.0953 18.4588C26.6303 18.3463 27.3353 17.6738 29.2753 18.0763C30.0953 18.2463 31.3953 18.9963 31.0653 21.9863C30.9403 23.1263 30.9703 25.7613 31.5078 28.1488C31.9403 30.0688 30.7578 29.5763 30.4328 29.3088C29.2729 28.3563 29.2228 26.1988 29.2228 26.1988C29.2228 26.1988 29.1129 29.4038 27.9404 28.2713C26.9904 27.3513 27.4679 25.1763 27.4679 25.1763C27.4679 25.1763 26.8528 27.3963 25.8154 26.5113C25.1028 25.9038 25.6328 23.5238 25.6328 23.5238C25.6328 23.5238 24.8053 25.4663 24.1903 25.1438C23.2503 24.6538 23.6953 22.6513 23.6953 22.6513C23.6953 22.6513 22.8353 24.5488 22.2753 24.1663C21.4403 23.5963 21.7428 21.8188 21.7428 21.8188C21.7428 21.8188 21.9878 20.0488 22.8778 19.1963Z" fill="#E0E0E0"/>
<path d="M30.3003 20.409C30.3003 20.409 30.4203 21.954 30.3128 22.8765C30.2453 23.449 30.2153 23.974 29.6903 23.8965C29.5628 23.8765 29.2653 23.629 29.2128 22.6765C29.1578 21.6665 29.3678 20.3315 29.2203 20.2315C29.0728 20.129 29.0654 21.8815 28.3354 22.979C28.0603 23.3915 27.5978 23.4365 27.5253 22.349C27.4453 21.1665 28.0578 19.7665 27.9703 19.6465C27.9703 19.6465 27.4528 20.284 27.1528 21.1865C26.8528 22.089 26.7203 22.514 26.3678 22.254C25.7353 21.789 26.6628 19.9365 26.6628 19.9365C26.6628 19.9365 25.9828 20.544 25.6878 21.394C25.5003 21.934 25.6028 22.8215 26.0828 23.0465C26.6478 23.3115 26.9778 22.839 26.9778 22.839C26.9778 22.839 27.0978 24.3515 27.8354 24.319C28.5429 24.2865 28.7228 23.489 28.7228 23.489C28.7228 23.489 28.6928 24.259 29.4078 24.7865C29.7553 25.044 30.5628 25.0865 30.6628 24.0665C30.8253 22.4115 30.3003 20.409 30.3003 20.409ZM24.4828 19.8665C24.3303 19.829 24.1103 20.5165 23.8353 20.904C23.7303 21.049 23.5053 21.3465 23.1603 21.3215C22.8153 21.2965 23.0878 20.2815 23.0078 20.3365C22.9278 20.3915 22.6053 20.934 22.7328 21.564C22.7678 21.739 22.9453 21.9465 23.1203 21.974C23.7753 22.079 24.0628 21.274 24.0628 21.274C24.0628 21.274 23.9653 22.2365 24.6128 22.3365C25.3953 22.4565 25.5553 21.224 25.4853 21.179C25.4153 21.134 25.1628 21.954 24.6053 21.604C24.1478 21.314 24.6353 19.9065 24.4828 19.8665Z" fill="#BDBDBD"/>
<path d="M4.61792 21.0764L12.7254 30.5739C12.7254 30.5739 13.0879 30.0364 13.1704 29.1989C13.2429 28.4689 12.9879 27.4989 12.9879 27.4989L4.95542 18.4614L4.61792 21.0764Z" fill="#206022"/>
<defs>
<linearGradient id="paint0_linear_614_143" x1="21.0716" y1="3.37805" x2="21.0716" y2="3.37805" gradientUnits="userSpaceOnUse">
<stop stop-color="#43A047"/>
<stop offset="0.999" stop-color="#66BB6A"/>
</linearGradient>
</defs>
</svg>
