<svg width="25" height="27" viewBox="0 0 25 27" fill="none" xmlns="http://www.w3.org/2000/svg">
<path fill-rule="evenodd" clip-rule="evenodd" d="M2.71052 9.94774C2.71052 7.30943 3.74191 4.77919 5.57779 2.91363C7.41367 1.04806 9.90367 0 12.5 0C15.0963 0 17.5863 1.04806 19.4222 2.91363C21.2581 4.77919 22.2895 7.30943 22.2895 9.94774V15.2968L24.8375 20.4753C24.9548 20.7136 25.0102 20.9785 24.9984 21.2447C24.9867 21.5109 24.9081 21.7697 24.7702 21.9964C24.6323 22.223 24.4397 22.4101 24.2106 22.5399C23.9816 22.6696 23.7237 22.7377 23.4614 22.7377H17.9178C17.6067 23.9573 16.9059 25.0375 15.9253 25.8086C14.9447 26.5797 13.7399 26.9981 12.5 26.9981C11.2601 26.9981 10.0553 26.5797 9.07471 25.8086C8.09413 25.0375 7.3933 23.9573 7.08222 22.7377H1.53858C1.27633 22.7377 1.01842 22.6696 0.789354 22.5399C0.560287 22.4101 0.367666 22.223 0.229784 21.9964C0.0919024 21.7697 0.0133385 21.5109 0.00155413 21.2447C-0.0102302 20.9785 0.0451564 20.7136 0.162453 20.4753L2.71052 15.2968V9.94774ZM10.0778 22.7377C10.3233 23.1697 10.6764 23.5285 11.1016 23.7779C11.5267 24.0274 12.009 24.1587 12.5 24.1587C12.991 24.1587 13.4733 24.0274 13.8984 23.7779C14.3236 23.5285 14.6767 23.1697 14.9222 22.7377H10.0778ZM12.5 2.84221C10.6455 2.84221 8.86691 3.59083 7.55556 4.92337C6.24422 6.25592 5.50751 8.06324 5.50751 9.94774V15.2968C5.50748 15.7378 5.40646 16.1728 5.21243 16.5672L3.57619 19.8955H21.4252L19.789 16.5672C19.5945 16.1729 19.493 15.7379 19.4925 15.2968V9.94774C19.4925 8.06324 18.7558 6.25592 17.4444 4.92337C16.1331 3.59083 14.3545 2.84221 12.5 2.84221Z" fill="black"/>
</svg>
