<svg width="23" height="23" viewBox="0 0 23 23" fill="none" xmlns="http://www.w3.org/2000/svg">
<path d="M3.83333 7.66667V6.57143C3.83333 2.94213 7.26582 0 11.5 0C15.7342 0 19.1667 2.94213 19.1667 6.57143V7.66667H21.7222C22.4279 7.66667 23 8.15703 23 8.7619V21.9048C23 22.5097 22.4279 23 21.7222 23H1.27778C0.572087 23 0 22.5097 0 21.9048V8.7619C0 8.15703 0.572087 7.66667 1.27778 7.66667H3.83333ZM20.4444 9.85714H2.55556V20.8095H20.4444V9.85714ZM10.2222 16.1355C9.45837 15.7568 8.94444 15.0489 8.94444 14.2381C8.94444 13.0283 10.0886 12.0476 11.5 12.0476C12.9114 12.0476 14.0556 13.0283 14.0556 14.2381C14.0556 15.0489 13.5416 15.7568 12.7778 16.1355V18.619H10.2222V16.1355ZM6.38889 7.66667H16.6111V6.57143C16.6111 4.15189 14.3227 2.19048 11.5 2.19048C8.67721 2.19048 6.38889 4.15189 6.38889 6.57143V7.66667Z" fill="#014B8A"/>
</svg>
