<svg width="20" height="23" viewBox="0 0 20 23" fill="none" xmlns="http://www.w3.org/2000/svg">
<path d="M16.9309 12.8194C15.8762 10.822 13.7787 9.57021 11.4926 9.57362H10.6037C12.8898 9.57021 14.9873 10.822 16.042 12.8194L16.0758 12.8833H16.9647L16.9309 12.8194Z" fill="#23B480" stroke="#23B480" stroke-width="0.421957"/>
<path fill-rule="evenodd" clip-rule="evenodd" d="M2.23728 12.8395H3.12619C4.08912 10.8639 6.00465 9.50475 8.21251 9.23052C6.32489 8.36796 5.30018 6.32897 5.74869 4.32794C6.19719 2.32691 7.99827 0.9021 10.0792 0.9021C12.1602 0.9021 13.9612 2.32691 14.4097 4.32794C14.8583 6.32897 13.8335 8.36796 11.9459 9.23052C14.1533 9.50565 16.068 10.865 17.0305 12.8404H17.9194C18.2515 12.8403 18.5662 12.9866 18.7773 13.239C18.9885 13.4915 19.0738 13.8237 19.0101 14.1447L17.8038 20.2143C17.7011 20.7275 17.2444 21.0978 16.7131 21.0984H3.44619C2.91507 21.0974 2.45851 20.7274 2.3555 20.2143L1.14659 14.1438C1.08282 13.8228 1.1682 13.4906 1.37932 13.2382C1.59044 12.9857 1.90517 12.8395 2.23728 12.8395ZM18.4331 13.5164C18.3065 13.365 18.1177 13.2772 17.9185 13.2772H2.23994C2.0407 13.2772 1.85191 13.365 1.72528 13.5164C1.59865 13.6679 1.54745 13.8672 1.5857 14.0598L2.79017 20.1302C2.85177 20.4385 3.12626 20.6607 3.4453 20.6607H16.714C17.0327 20.6603 17.3067 20.4382 17.3683 20.1302L18.5727 14.0598C18.611 13.8672 18.5598 13.6679 18.4331 13.5164ZM6.08891 5.27135C6.08697 3.15341 7.78996 1.41502 9.93941 1.34081C12.0889 1.2666 13.9113 2.88328 14.06 4.99616C14.2087 7.10903 12.6301 8.95779 10.4908 9.17624H9.66765C7.63767 8.96451 6.09525 7.28152 6.08891 5.27135ZM11.137 9.61742H9.02228L9.02139 9.61392C6.75279 9.61759 4.67339 10.8599 3.62217 12.8395H16.5362C15.484 10.8612 13.4048 9.62041 11.137 9.61742Z" fill="#23B480"/>
<path d="M3.12619 12.8395V13.0505H3.25806L3.31584 12.932L3.12619 12.8395ZM2.23728 12.8395L2.23724 13.0505H2.23728V12.8395ZM8.21251 9.23052L8.23852 9.43989L8.97746 9.3481L8.3002 9.03862L8.21251 9.23052ZM5.74869 4.32794L5.95456 4.37408L5.74869 4.32794ZM14.4097 4.32794L14.2039 4.37408L14.4097 4.32794ZM11.9459 9.23052L11.8582 9.03862L11.1815 9.34785L11.9198 9.43987L11.9459 9.23052ZM17.0305 12.8404L16.8408 12.9328L16.8986 13.0514H17.0305V12.8404ZM17.9194 12.8404V13.0514H17.9194L17.9194 12.8404ZM18.7773 13.239L18.9392 13.1037L18.7773 13.239ZM19.0101 14.1447L19.217 14.1858L19.217 14.1858L19.0101 14.1447ZM17.8038 20.2143L18.0107 20.2557L18.0108 20.2554L17.8038 20.2143ZM16.7131 21.0984V21.3093H16.7134L16.7131 21.0984ZM3.44619 21.0984L3.44583 21.3093H3.44619V21.0984ZM2.3555 20.2143L2.14859 20.2555L2.14865 20.2558L2.3555 20.2143ZM1.14659 14.1438L0.939656 14.1849L0.939675 14.185L1.14659 14.1438ZM1.37932 13.2382L1.54116 13.3735L1.54116 13.3735L1.37932 13.2382ZM17.9185 13.2772L17.9185 13.0662H17.9185V13.2772ZM18.4331 13.5164L18.595 13.3811V13.3811L18.4331 13.5164ZM2.23994 13.2772V13.0662H2.23993L2.23994 13.2772ZM1.72528 13.5164L1.88715 13.6518H1.88715L1.72528 13.5164ZM1.5857 14.0598L1.79265 14.0187L1.79264 14.0186L1.5857 14.0598ZM2.79017 20.1302L2.58323 20.1713L2.58328 20.1716L2.79017 20.1302ZM3.4453 20.6607V20.4497H3.44526L3.4453 20.6607ZM16.714 20.6607V20.8717H16.7143L16.714 20.6607ZM17.3683 20.1302L17.5751 20.1716L17.5752 20.1713L17.3683 20.1302ZM18.5727 14.0598L18.3658 14.0186L18.3658 14.0187L18.5727 14.0598ZM9.93941 1.34081L9.94669 1.55166L9.93941 1.34081ZM6.08891 5.27135L5.87794 5.27154L5.87794 5.27202L6.08891 5.27135ZM14.06 4.99616L13.8495 5.01097L14.06 4.99616ZM10.4908 9.17624V9.38722H10.5015L10.5122 9.38613L10.4908 9.17624ZM9.66765 9.17624L9.64577 9.38608L9.65668 9.38722H9.66765V9.17624ZM9.02228 9.61742L8.81779 9.66934L8.85817 9.8284H9.02228V9.61742ZM11.137 9.61742L11.1373 9.40644H11.137V9.61742ZM9.02139 9.61392L9.22589 9.562L9.18544 9.40268L9.02105 9.40294L9.02139 9.61392ZM3.62217 12.8395L3.43583 12.7406L3.27126 13.0505H3.62217V12.8395ZM16.5362 12.8395V13.0505H16.8874L16.7225 12.7405L16.5362 12.8395ZM3.12619 12.6286H2.23728V13.0505H3.12619V12.6286ZM8.18651 9.02115C5.90888 9.30405 3.9312 10.7064 2.93654 12.7471L3.31584 12.932C4.24704 11.0215 6.10041 9.70546 8.23852 9.43989L8.18651 9.02115ZM5.54282 4.2818C5.07212 6.38184 6.14811 8.51914 8.12483 9.42241L8.3002 9.03862C6.50168 8.21678 5.52825 6.2761 5.95456 4.37408L5.54282 4.2818ZM10.0792 0.691121C7.90165 0.691121 6.01338 2.18236 5.54282 4.2818L5.95456 4.37408C6.38101 2.47146 8.09489 1.11308 10.0792 1.11308V0.691121ZM14.6156 4.2818C14.1451 2.18236 12.2568 0.691121 10.0792 0.691121V1.11308C12.0635 1.11308 13.7774 2.47146 14.2039 4.37408L14.6156 4.2818ZM12.0336 9.42241C14.0103 8.51914 15.0863 6.38184 14.6156 4.2818L14.2039 4.37408C14.6302 6.2761 13.6568 8.21678 11.8582 9.03862L12.0336 9.42241ZM17.2201 12.748C16.2259 10.7076 14.2491 9.30498 11.972 9.02116L11.9198 9.43987C14.0574 9.70632 15.91 11.0225 16.8408 12.9328L17.2201 12.748ZM17.9194 12.6294H17.0305V13.0514H17.9194V12.6294ZM18.9392 13.1037C18.6875 12.8028 18.3133 12.6294 17.9193 12.6294L17.9194 13.0514C18.1897 13.0513 18.4449 13.1704 18.6155 13.3744L18.9392 13.1037ZM19.217 14.1858C19.2933 13.8018 19.191 13.4048 18.9392 13.1037L18.6155 13.3744C18.7859 13.5782 18.8544 13.8456 18.8031 14.1036L19.217 14.1858ZM18.0108 20.2554L19.217 14.1858L18.8031 14.1035L17.5969 20.1732L18.0108 20.2554ZM16.7134 21.3093C17.3429 21.3087 17.8879 20.8696 18.0107 20.2557L17.5969 20.1729C17.5144 20.5855 17.1459 20.8869 16.7129 20.8874L16.7134 21.3093ZM3.44619 21.3093H16.7131V20.8874H3.44619V21.3093ZM2.14865 20.2558C2.27184 20.8694 2.81654 21.3083 3.44583 21.3093L3.44656 20.8874C3.01361 20.8866 2.64517 20.5853 2.56236 20.1728L2.14865 20.2558ZM0.939675 14.185L2.14859 20.2555L2.56242 20.1731L1.35351 14.1026L0.939675 14.185ZM1.21747 13.1028C0.965674 13.4039 0.863369 13.8009 0.939656 14.1849L1.35352 14.1027C1.30228 13.8448 1.37072 13.5773 1.54116 13.3735L1.21747 13.1028ZM2.23732 12.6286C1.84337 12.6285 1.46911 12.8019 1.21747 13.1028L1.54116 13.3735C1.71176 13.1695 1.96696 13.0505 2.23724 13.0505L2.23732 12.6286ZM17.9185 13.4882C18.0559 13.4882 18.1852 13.5487 18.2713 13.6518L18.595 13.3811C18.4279 13.1812 18.1796 13.0662 17.9185 13.0662L17.9185 13.4882ZM2.23994 13.4882H17.9185V13.0662H2.23994V13.4882ZM1.88715 13.6518C1.97327 13.5487 2.10255 13.4882 2.23995 13.4882L2.23993 13.0662C1.97886 13.0662 1.73056 13.1812 1.56342 13.3811L1.88715 13.6518ZM1.79264 14.0186C1.7669 13.8891 1.80118 13.7546 1.88715 13.6518L1.56342 13.3811C1.39612 13.5812 1.328 13.8453 1.37877 14.1009L1.79264 14.0186ZM2.99712 20.0892L1.79265 14.0187L1.37876 14.1008L2.58323 20.1713L2.99712 20.0892ZM3.44526 20.4497C3.2246 20.4498 3.03852 20.2964 2.99706 20.0889L2.58328 20.1716C2.66503 20.5806 3.02791 20.8717 3.44533 20.8717L3.44526 20.4497ZM16.714 20.4497H3.4453V20.8717H16.714V20.4497ZM17.1614 20.0889C17.12 20.2961 16.9342 20.4495 16.7138 20.4497L16.7143 20.8717C17.1312 20.8712 17.4935 20.5802 17.5751 20.1716L17.1614 20.0889ZM18.3658 14.0187L17.1613 20.0892L17.5752 20.1713L18.7797 14.1008L18.3658 14.0187ZM18.2713 13.6518C18.3572 13.7546 18.3915 13.8891 18.3658 14.0186L18.7797 14.1009C18.8304 13.8453 18.7623 13.5812 18.595 13.3811L18.2713 13.6518ZM9.93213 1.12996C7.6719 1.20799 5.87588 3.03695 5.87794 5.27154L6.29989 5.27116C6.29806 3.26987 7.90802 1.62205 9.94669 1.55166L9.93213 1.12996ZM14.2704 4.98135C14.1136 2.7523 12.1922 1.05193 9.93213 1.12996L9.94669 1.55166C11.9855 1.48128 13.709 3.01426 13.8495 5.01097L14.2704 4.98135ZM10.5122 9.38613C12.762 9.1564 14.4273 7.21073 14.2704 4.98135L13.8495 5.01097C13.99 7.00734 12.4982 8.75919 10.4694 8.96635L10.5122 9.38613ZM9.66765 9.38722H10.4908V8.96526H9.66765V9.38722ZM5.87794 5.27202C5.88462 7.39255 7.51115 9.16344 9.64577 9.38608L9.68954 8.9664C7.76419 8.76558 6.30588 7.17049 6.29989 5.27068L5.87794 5.27202ZM9.02228 9.8284H11.137V9.40644H9.02228V9.8284ZM8.8169 9.66584L8.81779 9.66934L9.22677 9.5655L9.22589 9.562L8.8169 9.66584ZM3.80851 12.9385C4.82262 11.0287 6.82987 9.82844 9.02174 9.8249L9.02105 9.40294C6.67571 9.40674 4.52415 10.6911 3.43583 12.7406L3.80851 12.9385ZM16.5362 12.6286H3.62217V13.0505H16.5362V12.6286ZM11.1367 9.8284C13.3278 9.83129 15.3349 11.0301 16.3499 12.9386L16.7225 12.7405C15.6332 10.6923 13.4818 9.40953 11.1373 9.40644L11.1367 9.8284Z" fill="#23B480"/>
<path d="M18.9994 21.5623H1.15906C1.03632 21.5623 0.936829 21.6602 0.936829 21.7811C0.936829 21.9019 1.03632 21.9999 1.15906 21.9999H18.9994C19.1222 21.9999 19.2216 21.9019 19.2216 21.7811C19.2216 21.6602 19.1222 21.5623 18.9994 21.5623Z" fill="#23B480" stroke="#23B480" stroke-width="0.421957"/>
</svg>
