<svg width="13" height="15" viewBox="0 0 13 15" fill="none" xmlns="http://www.w3.org/2000/svg">
<path d="M3.61123 2.16667V3.61111H1.44457V13H11.5557V3.61111H9.38901V2.16667H11.5557C11.9388 2.16667 12.3062 2.31885 12.5771 2.58973C12.8479 2.86062 13.0001 3.22802 13.0001 3.61111V13C13.0001 13.3831 12.8479 13.7505 12.5771 14.0214C12.3062 14.2923 11.9388 14.4444 11.5557 14.4444H1.44457C1.06148 14.4444 0.694076 14.2923 0.42319 14.0214C0.152304 13.7505 0.00012207 13.3831 0.00012207 13V3.61111C0.00012207 3.22802 0.152304 2.86062 0.42319 2.58973C0.694076 2.31885 1.06148 2.16667 1.44457 2.16667H3.61123ZM6.50012 0C6.69167 0 6.87537 0.076091 7.01081 0.211534C7.14625 0.346977 7.22234 0.530677 7.22234 0.722222V8.54244L8.54257 7.22222C8.60962 7.15512 8.68924 7.10188 8.77686 7.06555C8.86449 7.02922 8.95842 7.0105 9.05328 7.01046C9.14815 7.01043 9.24209 7.02908 9.32974 7.06535C9.4174 7.10163 9.49705 7.15481 9.56415 7.22186C9.63125 7.28892 9.68449 7.36853 9.72082 7.45616C9.75715 7.54379 9.77587 7.63771 9.77591 7.73258C9.77594 7.82744 9.75729 7.92138 9.72102 8.00904C9.68475 8.09669 9.63156 8.17634 9.56451 8.24344L7.13784 10.6694C6.96856 10.8385 6.73906 10.9335 6.49976 10.9335C6.26047 10.9335 6.03096 10.8385 5.86168 10.6694L3.43573 8.24344C3.36868 8.17634 3.3155 8.09669 3.27923 8.00904C3.24295 7.92138 3.2243 7.82744 3.22434 7.73258C3.22437 7.63771 3.24309 7.54379 3.27942 7.45616C3.31576 7.36853 3.36899 7.28892 3.43609 7.22186C3.5032 7.15481 3.58285 7.10163 3.6705 7.06535C3.75816 7.02908 3.8521 7.01043 3.94696 7.01046C4.04182 7.0105 4.13575 7.02922 4.22338 7.06555C4.31101 7.10188 4.39062 7.15512 4.45768 7.22222L5.7779 8.54244V0.722222C5.7779 0.530677 5.85399 0.346977 5.98943 0.211534C6.12488 0.076091 6.30858 0 6.50012 0Z" fill="black"/>
</svg>
