<svg width="16" height="19" viewBox="0 0 16 19" fill="none" xmlns="http://www.w3.org/2000/svg">
<path d="M13.3333 14.667V17.3337H2.66659V14.667H1.33325V17.3337C1.33325 17.6873 1.47373 18.0264 1.72378 18.2765C1.97382 18.5265 2.31296 18.667 2.66659 18.667H13.3333C13.6869 18.667 14.026 18.5265 14.2761 18.2765C14.5261 18.0264 14.6666 17.6873 14.6666 17.3337V14.667H13.3333Z" fill="black"/>
<path d="M11.3333 12.6667L10.3907 11.724L8.66667 13.448V8H7.33333V13.448L5.60933 11.724L4.66667 12.6667L8 16L11.3333 12.6667ZM16 1.33333V0H12V6.66667H13.3333V4H15.3333V2.66667H13.3333V1.33333H16ZM8.66667 6.66667H6V0H8.66667C9.19694 0.000529477 9.70534 0.211413 10.0803 0.586371C10.4553 0.961329 10.6661 1.46973 10.6667 2V4.66667C10.6661 5.19694 10.4553 5.70534 10.0803 6.0803C9.70534 6.45525 9.19694 6.66614 8.66667 6.66667ZM7.33333 5.33333H8.66667C8.84348 5.33333 9.01305 5.2631 9.13807 5.13807C9.2631 5.01305 9.33333 4.84348 9.33333 4.66667V2C9.33333 1.82319 9.2631 1.65362 9.13807 1.5286C9.01305 1.40357 8.84348 1.33333 8.66667 1.33333H7.33333V5.33333ZM3.33333 0H0V6.66667H1.33333V4.66667H3.33333C3.68679 4.66614 4.02562 4.52549 4.27556 4.27556C4.52549 4.02562 4.66614 3.68679 4.66667 3.33333V1.33333C4.66667 0.979711 4.52619 0.640573 4.27614 0.390524C4.02609 0.140476 3.68696 0 3.33333 0ZM1.33333 3.33333V1.33333H3.33333L3.334 3.33333H1.33333Z" fill="black"/>
</svg>
