<svg width="30" height="30" viewBox="0 0 30 30" fill="none" xmlns="http://www.w3.org/2000/svg">
<path d="M15 0C9.2175 0 4.5 4.28864 4.5 9.54545C4.5 12.8318 6.345 15.75 9.141 17.4723C3.7905 19.5586 0 24.3859 0 30H3C2.9981 28.1357 3.52309 26.3023 4.52461 24.6755C5.52613 23.0487 6.9706 21.683 8.7195 20.7095C9.2318 21.8418 10.1019 22.8106 11.2198 23.4934C12.3377 24.1762 13.6532 24.5423 15 24.5455C16.347 24.5426 17.6629 24.1766 18.7811 23.4938C19.8993 22.811 20.7696 21.8421 21.282 20.7095C23.0306 21.6832 24.4748 23.0489 25.476 24.6757C26.4773 26.3025 27.0021 28.1359 27 30H30C30 24.3859 26.2095 19.56 20.859 17.4709C22.2864 16.5955 23.4559 15.4152 24.265 14.0335C25.0741 12.6518 25.4982 11.1108 25.5 9.54545C25.5 4.28864 20.7825 0 15 0ZM15 2.72727C19.1595 2.72727 22.5 5.76409 22.5 9.54545C22.5 13.3268 19.1595 16.3636 15 16.3636C10.8405 16.3636 7.5 13.3268 7.5 9.54545C7.5 5.76409 10.8405 2.72727 15 2.72727ZM15 19.0909C16.23 19.0927 17.402 19.2491 18.516 19.56C18.2598 20.2217 17.7839 20.7948 17.1541 21.2003C16.5244 21.6057 15.7717 21.8234 15 21.8234C14.2283 21.8234 13.4756 21.6057 12.8459 21.2003C12.2161 20.7948 11.7402 20.2217 11.484 19.56C12.6239 19.2459 13.8089 19.0878 15 19.0909Z" fill="#014B8A"/>
</svg>
