<svg width="17" height="17" viewBox="0 0 17 17" fill="none" xmlns="http://www.w3.org/2000/svg">
<path d="M16.9602 12.8309C16.7621 12.6199 16.0627 11.9961 14.7771 11.1707C13.4819 10.3382 12.5268 9.81905 12.2528 9.69799C12.2287 9.68728 12.2021 9.68336 12.1759 9.68663C12.1496 9.68991 12.1248 9.70026 12.1041 9.71659C11.6627 10.0608 10.9197 10.693 10.8799 10.7271C10.6226 10.9476 10.6226 10.9476 10.412 10.8789C10.0416 10.7575 8.89106 10.1465 7.88848 9.14169C6.88591 8.13684 6.24346 6.95781 6.12203 6.58782C6.05259 6.37683 6.05259 6.37683 6.27382 6.11955C6.30797 6.07971 6.94056 5.3367 7.28474 4.89575C7.30106 4.87498 7.31142 4.85016 7.3147 4.82395C7.31797 4.79774 7.31404 4.77114 7.30334 4.74699C7.18228 4.47263 6.66316 3.51787 5.83059 2.22273C5.0041 0.937449 4.381 0.238078 4.17001 0.0399926C4.15065 0.021722 4.12672 0.00901202 4.10074 0.00320178C4.07476 -0.00260845 4.0477 -0.00130372 4.0224 0.00697837C3.28489 0.260434 2.5733 0.583827 1.89734 0.972741C1.24481 1.35207 0.627029 1.78826 0.0512005 2.27623C0.0310996 2.29332 0.0160296 2.31556 0.0076063 2.34056C-0.000816952 2.36557 -0.00227558 2.39239 0.00338675 2.41816C0.0826969 2.78777 0.461792 4.33071 1.63816 6.46791C2.83844 8.64913 3.67025 9.76668 5.43291 11.5233C7.19556 13.2799 8.34841 14.1618 10.5319 15.362C12.6691 16.5384 14.2128 16.9179 14.5817 16.9964C14.6075 17.002 14.6343 17.0006 14.6594 16.9921C14.6844 16.9837 14.7068 16.9687 14.724 16.9486C15.2118 16.3728 15.6479 15.755 16.0271 15.1025C16.4159 14.4265 16.7393 13.7149 16.9928 12.9774C17.0009 12.9523 17.0022 12.9255 16.9965 12.8997C16.9907 12.874 16.9782 12.8502 16.9602 12.8309Z" fill="#014B8A"/>
</svg>
