<svg width="18" height="21" viewBox="0 0 18 21" fill="none" xmlns="http://www.w3.org/2000/svg">
<path d="M14.4785 10.2584V4.90044C14.4785 4.83278 14.4655 4.76578 14.44 4.70327C14.4146 4.64075 14.3773 4.58397 14.3302 4.53615L11.6783 1.83787C11.5836 1.74139 11.4551 1.68713 11.3211 1.68701H1.50544C1.37139 1.68701 1.24283 1.7412 1.14804 1.83764C1.05325 1.93409 1 2.0649 1 2.2013V18.3156C1 18.452 1.05325 18.5828 1.14804 18.6792C1.24283 18.7757 1.37139 18.8299 1.50544 18.8299H8.58164M4.36962 8.54415H11.1089M4.36962 5.11558H7.73924M4.36962 11.9727H6.89683" stroke="#014B8A" stroke-width="1.73746" stroke-linecap="round" stroke-linejoin="round"/>
<path d="M11.1088 1.68677V4.60105C11.1088 4.73745 11.1621 4.86826 11.2569 4.96471C11.3517 5.06116 11.4802 5.11534 11.6143 5.11534H14.4784M14.4717 12.9368L16.6249 13.4931C16.849 13.5513 17.0065 13.7588 16.9998 13.9936C16.8549 18.9291 14.0572 19.6868 14.0572 19.6868C14.0572 19.6868 11.2596 18.9291 11.1147 13.9936C11.1124 13.8794 11.1482 13.7677 11.2163 13.6768C11.2844 13.5859 11.3807 13.5211 11.4896 13.4931L13.6428 12.9368C13.9149 12.8665 14.1996 12.8665 14.4717 12.9368Z" stroke="#014B8A" stroke-width="1.73746" stroke-linecap="round" stroke-linejoin="round"/>
</svg>
