<svg width="24" height="23" viewBox="0 0 24 23" fill="none" xmlns="http://www.w3.org/2000/svg">
<path d="M8.8562 22C7.03689 21.4604 5.38918 20.4624 4.0734 19.103C4.49672 18.6044 4.76061 17.9917 4.8313 17.3433C4.90198 16.6949 4.77625 16.0403 4.4702 15.4633C4.16414 14.8863 3.69168 14.4131 3.11326 14.1042C2.53485 13.7953 1.87679 13.6649 1.22331 13.7296C1.07409 13.0054 0.999277 12.2681 1.00001 11.5289C1.00001 10.3874 1.17601 9.28628 1.50381 8.25179H1.55001C2.11087 8.25197 2.66253 8.11019 3.15289 7.83983C3.64325 7.56947 4.05613 7.17945 4.35255 6.70661C4.64896 6.23377 4.81913 5.6937 4.84699 5.13741C4.87485 4.58111 4.75947 4.02695 4.51175 3.52723C5.80169 2.33535 7.36105 1.46863 9.0586 1C9.33491 1.53877 9.75592 1.99112 10.275 2.30701C10.7942 2.6229 11.3912 2.79002 12 2.78987C12.6088 2.79002 13.2058 2.6229 13.725 2.30701C14.2441 1.99112 14.6651 1.53877 14.9414 1C16.639 1.46863 18.1983 2.33535 19.4882 3.52723C19.2387 4.03044 19.1234 4.58884 19.1534 5.14896C19.1834 5.70908 19.3577 6.25219 19.6595 6.72629C19.9614 7.2004 20.3807 7.58963 20.8774 7.85673C21.374 8.12383 21.9314 8.25986 22.4962 8.25179C22.831 9.31236 23.0009 10.4175 23 11.5289C23 12.2827 22.923 13.019 22.7767 13.7301C22.1232 13.6654 21.4652 13.7959 20.8867 14.1047C20.3083 14.4136 19.8359 14.8868 19.5298 15.4638C19.2237 16.0409 19.098 16.6955 19.1687 17.3438C19.2394 17.9922 19.5033 18.6049 19.9266 19.1035C18.6108 20.4627 16.9631 21.4606 15.1438 22C14.9302 21.3387 14.5106 20.7619 13.9456 20.3526C13.3806 19.9434 12.6993 19.7229 12 19.7229C11.3007 19.7229 10.6194 19.9434 10.0544 20.3526C9.48941 20.7619 9.06985 21.3387 8.8562 22Z" stroke="#848484" stroke-width="2" stroke-linejoin="round"/>
<path d="M11.9999 15.3523C12.5055 15.3523 13.0061 15.2534 13.4732 15.0612C13.9403 14.8691 14.3648 14.5875 14.7223 14.2324C15.0798 13.8774 15.3634 13.4559 15.5568 12.992C15.7503 12.5282 15.8499 12.031 15.8499 11.5289C15.8499 11.0268 15.7503 10.5297 15.5568 10.0658C15.3634 9.60191 15.0798 9.18043 14.7223 8.8254C14.3648 8.47037 13.9403 8.18874 13.4732 7.9966C13.0061 7.80446 12.5055 7.70557 11.9999 7.70557C10.9788 7.70557 9.99956 8.10838 9.27754 8.8254C8.55553 9.54241 8.1499 10.5149 8.1499 11.5289C8.1499 12.5429 8.55553 13.5154 9.27754 14.2324C9.99956 14.9494 10.9788 15.3523 11.9999 15.3523Z" stroke="#848484" stroke-width="2" stroke-linejoin="round"/>
</svg>
