<svg width="23" height="23" viewBox="0 0 23 23" fill="none" xmlns="http://www.w3.org/2000/svg">
<path d="M11.5 23C17.8513 23 23 17.8513 23 11.5C23 5.14873 17.8513 0 11.5 0C5.14873 0 0 5.14873 0 11.5C0 17.8513 5.14873 23 11.5 23Z" fill="#C03F42"/>
<path opacity="0.6" d="M14.2465 12.2195L11.5046 14.9607H16.9871L14.2465 12.2195Z" fill="white"/>
<path opacity="0.7" d="M8.74126 12.222L11.4831 9.48132H6L8.74188 12.2226L8.74126 12.222Z" fill="white"/>
<path opacity="0.4" d="M11.5046 14.9614L14.2391 12.2269L11.4923 9.47888L6.0092 14.9614L11.4917 20.4445L16.9749 14.9614H16.9736H11.5046Z" fill="white"/>
<path opacity="0.8" d="M11.5175 4L6.03802 9.47946H11.4832L8.75722 12.2054L11.5175 14.9651L17 9.48253L11.5175 4Z" fill="white"/>
</svg>
