<svg width="21" height="22" viewBox="0 0 21 22" fill="none" xmlns="http://www.w3.org/2000/svg">
<path d="M10.5 0.986206C4.70569 0.986206 0 5.69189 0 11.4862C0 17.2805 4.70569 21.9863 10.5 21.9863C16.2943 21.9863 21 17.2806 21 11.4863C21 5.69194 16.2943 0.986206 10.5 0.986206ZM10.5 1.77031C13.0503 1.77031 15.369 2.7499 17.1014 4.35393C14.7652 3.35867 11.7905 4.53991 10.2276 3.5397C10.9129 4.77414 12.0689 4.81706 13.4695 4.74121C14.4686 5.96296 16.1774 5.52199 18.1455 5.48564C18.9071 6.45497 19.4765 7.56088 19.8231 8.74389C18.7829 9.04276 16.6439 8.9194 15.778 8.70558C16.1387 9.05721 16.6152 9.23224 17.1834 9.34469C15.0718 9.39142 13.0512 9.58366 11.737 8.83287C12.1241 9.45526 12.6179 9.84907 13.1944 10.0864C12.3202 10.0674 11.5093 9.9458 10.7901 9.6006C11.965 10.9338 13.8159 10.9415 15.8027 10.7514C17.163 11.2462 18.724 11.3636 20.2131 11.2933C20.2144 11.3577 20.2159 11.4216 20.2159 11.4863C20.2159 12.327 20.1096 13.143 19.9094 13.9208C19.4744 13.8123 19.0162 13.713 18.5382 13.6239L18.8406 12.5098L18.0511 12.2964L17.728 13.4843C17.1015 13.3853 16.4479 13.302 15.7753 13.2325L15.9217 11.8586L15.1075 11.771L14.9597 13.1559C14.1862 13.0906 13.3923 13.0442 12.5909 13.0149L12.6511 11.4987L11.8342 11.4659L11.7726 12.9903C11.2873 12.9799 10.8009 12.9759 10.3152 12.978C10.0167 12.9794 9.71861 12.9843 9.42158 12.9903L9.3559 11.3385L8.53895 11.3714L8.60463 13.0122C7.84432 13.0386 7.08467 13.0815 6.32623 13.1409L6.14963 11.4905L5.33688 11.5768L5.51064 13.212C4.85685 13.275 4.22198 13.3504 3.61803 13.4378L3.23215 12.0146L2.44261 12.2295L2.8052 13.5651C2.19284 13.6697 1.61822 13.7871 1.08919 13.9181C0.889422 13.1412 0.783975 12.3261 0.783975 11.4864C0.783975 10.1635 1.04803 8.90351 1.52569 7.75472C3.52195 8.43268 7.56019 7.21908 10.6368 8.47585C10.0422 7.91972 9.36277 7.59961 8.64299 7.40168C10.5155 7.60373 13.0994 6.82987 15.752 7.9135C15.1657 7.36498 14.4914 7.06283 13.7828 6.86385C12.414 5.70823 10.6588 5.61859 8.97409 5.66238C7.39602 4.53062 5.35553 4.64785 3.53054 4.7141C5.29528 2.8983 7.76434 1.77031 10.5 1.77031ZM10.3152 13.8181C10.7899 13.816 11.2658 13.8209 11.7398 13.8305L11.696 14.9143C10.9639 14.9053 10.2316 14.9099 9.49966 14.9279L9.45587 13.8291C9.74195 13.8236 10.0278 13.8194 10.3152 13.8181ZM8.63761 13.8524L8.6814 14.9539C7.96455 14.9811 7.24814 15.0199 6.53288 15.0702L6.41526 13.9713C7.13701 13.9169 7.8824 13.8778 8.63761 13.8524ZM12.5581 13.8537C13.3417 13.8811 14.1171 13.924 14.8708 13.985L14.7586 15.0347C14.0118 14.9842 13.2639 14.949 12.5157 14.9293L12.5581 13.8537ZM5.59962 14.0398L5.71588 15.1332C5.18302 15.1767 4.65065 15.226 4.11886 15.281L3.83702 14.241C4.39951 14.1634 4.98962 14.0964 5.59962 14.0398ZM15.6864 14.059C16.3161 14.122 16.9272 14.1962 17.5119 14.2848L17.2464 15.2632C16.6903 15.1985 16.1333 15.1429 15.5755 15.0964L15.6864 14.059ZM3.02279 14.3642L3.29516 15.3714C2.75671 15.4332 2.21887 15.5003 1.68172 15.5725C1.55005 15.2887 1.43222 14.9988 1.32864 14.7036C1.84571 14.5775 2.41393 14.4643 3.02279 14.3642ZM18.322 14.4202C18.7951 14.5058 19.2459 14.6003 19.6713 14.7049C19.5706 14.9916 19.4564 15.2733 19.3291 15.5493C18.9089 15.4822 18.4879 15.4206 18.0661 15.3645L18.322 14.4202Z" fill="white"/>
</svg>
